<?xml version="1.0" encoding="UTF-8"?>
<svg xmlns="http://www.w3.org/2000/svg" viewBox="-10 -30 276 290" width="552" height="580"><defs><linearGradient id="o13s7" x1="0" y1="0" x2="0" y2="1"><stop offset="0" stop-color="#CFEFFF"></stop><stop offset="1" stop-color="#EAF8FF"></stop></linearGradient></defs><rect x="-6" y="-26" width="268" height="270" rx="16" fill="url(#o13s7)"></rect><path d="M150,90 L150,190 L240,190 L240,90 L195,60 Z" fill="#E0A458"></path><rect x="180" y="140" width="28" height="50" fill="#8A5A3B"></rect><rect x="158" y="110" width="22" height="18" fill="#BFE6FF"></rect><path d="M-6,170 L262,170 L262,244 L-6,244 Z" fill="#8CC66B"></path><path d="M4,170 L4,150" stroke="#C9A16B" stroke-width="5"></path><path d="M-6,158 L14,158" stroke="#C9A16B" stroke-width="3"></path><path d="M28,170 L28,150" stroke="#C9A16B" stroke-width="5"></path><path d="M18,158 L38,158" stroke="#C9A16B" stroke-width="3"></path><path d="M52,170 L52,150" stroke="#C9A16B" stroke-width="5"></path><path d="M42,158 L62,158" stroke="#C9A16B" stroke-width="3"></path><path d="M76,170 L76,150" stroke="#C9A16B" stroke-width="5"></path><path d="M66,158 L86,158" stroke="#C9A16B" stroke-width="3"></path><path d="M100,170 L100,150" stroke="#C9A16B" stroke-width="5"></path><path d="M90,158 L110,158" stroke="#C9A16B" stroke-width="3"></path><path d="M124,170 L124,150" stroke="#C9A16B" stroke-width="5"></path><path d="M114,158 L134,158" stroke="#C9A16B" stroke-width="3"></path><path d="M148,170 L148,150" stroke="#C9A16B" stroke-width="5"></path><path d="M138,158 L158,158" stroke="#C9A16B" stroke-width="3"></path></svg>