<?xml version="1.0" encoding="UTF-8"?>
<svg xmlns="http://www.w3.org/2000/svg" viewBox="-10 -30 276 290" width="552" height="580"><defs><linearGradient id="o16s1" x1="0" y1="0" x2="0" y2="1"><stop offset="0" stop-color="#F6E7D4"></stop><stop offset="1" stop-color="#EBD7BC"></stop></linearGradient></defs><rect x="-6" y="-26" width="268" height="270" rx="16" fill="url(#o16s1)"></rect><path d="M150,196 L150,110 C150,60 240,60 240,110 L240,196 Z" fill="#B0563A"></path><path d="M168,196 L168,120 C168,96 222,96 222,120 L222,196 Z" fill="#2E1E14"></path><g class="o14flame" style="transform-origin:185px 192px"><path d="M185,192 C176.6,187.8 178.0,175.2 185,166.8 C192.0,175.2 193.4,187.8 185,192 Z" fill="#FF8A2B"></path><path d="M185,192 C180.8,189.2 181.5,182.2 185,178.0 C188.5,182.2 189.2,189.2 185,192 Z" fill="#FFD84D"></path></g><g class="o14flame" style="transform-origin:203px 192px"><path d="M203,192 C192.2,186.6 194.0,170.4 203,159.6 C212.0,170.4 213.8,186.6 203,192 Z" fill="#FF8A2B"></path><path d="M203,192 C197.6,188.4 198.5,179.4 203,174.0 C207.5,179.4 208.4,188.4 203,192 Z" fill="#FFD84D"></path></g><rect x="20" y="40" width="90" height="10" fill="#8A5A3B"></rect><circle cx="36" cy="32" r="8" fill="#E8B46A"></circle><circle cx="64" cy="32" r="8" fill="#E8B46A"></circle><circle cx="92" cy="32" r="8" fill="#E8B46A"></circle><rect x="-6" y="196" width="268" height="48" fill="#C98B4E"></rect></svg>